<svg width="41" height="41" viewBox="0 0 41 41" fill="none" xmlns="http://www.w3.org/2000/svg">
<path d="M19.3196 0.542095C15.5982 0.754219 11.863 2.07307 8.85181 4.24502C6.8597 5.68377 5.0336 7.59287 3.7332 9.59881C0.929489 13.9335 -0.0942336 19.0613 0.83265 24.1477C1.69036 28.8513 4.27734 33.149 8.04482 36.1464C12.5962 39.7664 18.3973 41.2143 24.1385 40.1675C28.8375 39.3098 33.1445 36.7229 36.1372 32.9554C39.7572 28.404 41.2051 22.6075 40.1584 16.8617C39.3006 12.1581 36.7137 7.86033 32.9462 4.86295C29.6583 2.2483 25.7893 0.777275 21.5561 0.537487C20.6569 0.486759 20.2649 0.486759 19.3196 0.542095ZM11.8354 7.8465C12.3518 7.95256 12.7254 8.16007 13.1219 8.55665C13.6661 9.10079 13.9151 9.71871 13.9151 10.5026C13.9105 11.1713 13.6799 11.7615 13.2326 12.2227C12.2642 13.2326 10.5903 13.4124 9.41901 12.6377C8.78725 12.2181 8.37684 11.5586 8.26617 10.807C8.19239 10.2767 8.28461 9.6726 8.51057 9.21607C8.82414 8.57048 9.56657 8.00789 10.3044 7.85111C10.6964 7.76349 11.448 7.76349 11.8354 7.8465ZM28.2195 14.9019C28.9066 15.0079 29.3124 15.1325 29.9257 15.4322C31.7472 16.3222 32.8217 18.1022 33.186 20.8275C33.2321 21.1595 33.2459 22.5936 33.2459 26.8223V32.3789H30.5713H27.8967L27.8691 27.0528C27.8414 21.3163 27.8552 21.5884 27.6062 20.8736C27.3203 20.0482 26.8085 19.5271 26.0522 19.2919C25.628 19.1628 24.8071 19.1536 24.3967 19.2781C23.6405 19.504 23.0779 19.9836 22.6997 20.7168C22.2939 21.5007 22.3262 20.9981 22.3032 27.039L22.2893 32.402H19.5963H16.9079L16.8802 24.4336C16.8617 20.0528 16.8387 16.1838 16.8249 15.8334L16.7972 15.2016H19.1075H21.4132L21.4362 15.3492C21.4685 15.5336 21.6945 17.4704 21.6945 17.5488C21.6945 17.6687 21.7959 17.5765 22.0357 17.2306C22.709 16.2761 23.5805 15.5936 24.6135 15.2247C24.9962 15.0863 25.7248 14.9111 26.0983 14.865C26.4857 14.8143 27.7999 14.8373 28.2195 14.9019ZM13.7629 23.8018V32.402H11.0883H8.41373V23.8018V15.2016H11.0883H13.7629V23.8018Z" fill="#CED2DA" fill-opacity="0.79"/>
</svg>
