<svg width="41" height="41" viewBox="0 0 41 41" fill="none" xmlns="http://www.w3.org/2000/svg">
<g clip-path="url(#clip0_10_1516)">
<path d="M19.0711 0.549881C14.2962 0.90477 9.94074 2.86818 6.5209 6.20966C2.02257 10.5974 -0.134411 16.8102 0.662936 23.0507C1.65847 30.8537 7.16155 37.3523 14.7202 39.6522C20.5644 41.4312 27.0676 40.3758 32.0222 36.8499C38.1106 32.5129 41.2769 25.3183 40.3367 17.9532C39.3412 10.1503 33.8381 3.6517 26.2794 1.35184C24.0303 0.665104 21.4078 0.374741 19.0711 0.549881ZM32.8702 7.70757C33.0961 7.83662 33.2343 8.04863 33.2804 8.33438C33.3035 8.445 32.6075 12.7129 31.1234 21.6035C29.0586 34.0016 28.9342 34.7206 28.8098 34.9188C28.6484 35.1815 28.3627 35.3428 28.0631 35.3428C27.8926 35.3428 27.0261 35.011 23.6016 33.6421L19.3522 31.946L18.4673 33.4255C17.9833 34.2366 17.5178 34.9741 17.4395 35.0616C17.2597 35.2552 17.0569 35.3428 16.7896 35.3428C16.5039 35.3428 16.3011 35.2506 16.1259 35.0386C16.0476 34.9372 15.2687 33.6144 14.3976 32.0935L12.8167 29.3281L9.34158 27.9408C6.14297 26.6595 5.85261 26.5351 5.71895 26.3784C5.44702 26.065 5.42397 25.5304 5.67286 25.2538C5.80191 25.1155 31.9991 7.64304 32.1605 7.59234C32.354 7.52782 32.649 7.57852 32.8702 7.70757Z" fill="#CED2DA" fill-opacity="0.79"/>
<path d="M22.4725 19.774C18.0479 24.5212 14.4253 28.425 14.4207 28.4526C14.4207 28.4757 14.9507 29.4251 15.6005 30.5543L16.7897 32.6145L16.8864 32.467C16.9417 32.3887 19.9191 27.7382 23.5049 22.1384C27.0906 16.5339 30.1418 11.7729 30.2846 11.547C30.4275 11.3258 30.5381 11.146 30.5289 11.146C30.5243 11.146 26.8971 15.0314 22.4725 19.774Z" fill="#CED2DA" fill-opacity="0.79"/>
</g>
<defs>
<clipPath id="clip0_10_1516">
<rect width="40" height="40" fill="white" transform="translate(0.5 0.5)"/>
</clipPath>
</defs>
</svg>
